<?xml version="1.0" standalone="no"?>
<!DOCTYPE svg PUBLIC "-//W3C//DTD SVG 20010904//EN"
 "http://www.w3.org/TR/2001/REC-SVG-20010904/DTD/svg10.dtd">
<svg version="1.0" xmlns="http://www.w3.org/2000/svg"
 width="1280.000000pt" height="640.000000pt" viewBox="0 0 1280.000000 640.000000"
 preserveAspectRatio="xMidYMid meet">
<metadata>
Created by potrace 1.15, written by Peter Selinger 2001-2017
</metadata>
<g transform="translate(0.000000,640.000000) scale(0.100000,-0.100000)"
fill="#000000" stroke="none">
<path d="M6379 6183 c-51 -134 -116 -228 -288 -414 -144 -156 -194 -223 -242
-325 -47 -98 -69 -187 -69 -276 0 -38 -3 -68 -7 -68 -5 1 -24 26 -43 57 -51
82 -208 242 -295 302 -99 68 -230 129 -308 143 -102 18 -349 15 -446 -5 -179
-38 -300 -104 -426 -231 -86 -87 -93 -96 -132 -196 -56 -144 -77 -243 -76
-370 0 -223 86 -405 282 -600 89 -88 175 -157 500 -394 165 -121 251 -206 294
-292 152 -304 116 -510 -113 -649 -32 -19 -60 -35 -63 -35 -3 0 -9 26 -13 58
-33 265 -246 512 -508 587 -384 109 -781 -108 -896 -490 -33 -109 -34 -287 -2
-385 12 -36 22 -69 22 -74 0 -5 -34 -6 -78 -3 -189 15 -290 99 -333 277 -33
141 2 481 81 767 71 258 93 407 94 638 1 205 -5 255 -45 385 -104 337 -371
531 -754 547 -101 4 -150 2 -215 -11 -409 -83 -686 -435 -763 -971 l-13 -90
-37 73 c-107 212 -286 392 -495 496 -116 59 -233 94 -556 171 -174 41 -242 61
-349 104 -43 17 -80 31 -82 31 -3 0 -5 -20 -5 -45 0 -37 32 -116 174 -432 407
-908 630 -1334 920 -1761 156 -229 144 -203 114 -243 -91 -121 -103 -261 -31
-357 55 -73 170 -127 287 -134 l49 -3 154 -330 c85 -182 269 -576 410 -877
141 -302 259 -548 263 -548 4 0 108 25 231 55 1711 417 3566 526 5519 325 681
-71 1416 -188 2100 -336 140 -31 271 -58 290 -61 l35 -5 402 874 402 873 65 7
c191 22 316 132 316 277 0 78 -24 142 -82 219 l-49 64 36 52 c339 476 583 932
1021 1909 142 316 174 395 174 432 0 25 -2 45 -5 45 -2 0 -39 -14 -82 -31
-107 -43 -175 -63 -349 -104 -323 -77 -440 -112 -556 -171 -209 -104 -388
-284 -495 -496 l-37 -73 -13 90 c-77 536 -354 888 -763 971 -65 13 -114 15
-215 11 -383 -16 -650 -210 -754 -547 -40 -130 -46 -180 -45 -385 1 -230 23
-380 93 -636 44 -157 75 -330 91 -501 24 -255 -36 -432 -170 -500 -49 -25
-157 -54 -167 -45 -2 2 7 30 19 63 19 51 22 79 22 209 -1 135 -3 157 -26 221
-64 179 -194 327 -358 409 -353 177 -782 41 -964 -304 -40 -76 -76 -197 -76
-254 0 -38 0 -39 -32 -32 -53 11 -150 60 -193 98 -120 104 -136 271 -47 471
53 121 135 246 199 307 74 68 119 100 351 243 253 155 324 210 430 331 179
206 211 489 93 826 -51 143 -79 189 -176 284 -204 201 -490 287 -813 245 -132
-17 -303 -112 -441 -244 -73 -70 -179 -199 -220 -266 l-21 -35 0 45 c0 149
-58 315 -155 445 -25 33 -98 118 -163 189 -152 167 -212 247 -261 351 -40 83
-42 85 -76 85 -30 0 -37 -5 -46 -27z m848 -2325 l78 -113 -1 -120 c-1 -140
-21 -266 -64 -391 -37 -109 -40 -208 -10 -305 77 -251 386 -455 700 -462 l95
-2 20 -36 c11 -19 35 -54 53 -76 l32 -41 -60 -37 c-126 -76 -312 -125 -479
-125 -347 0 -669 182 -815 460 -20 37 -36 70 -36 73 0 3 17 11 38 17 62 21
170 80 216 121 89 79 120 200 76 296 -25 55 -91 119 -169 163 l-62 35 5 75
c10 142 89 358 173 473 33 45 105 107 124 107 4 0 43 -51 86 -112z m-1508 22
c99 -50 226 -250 271 -424 30 -119 31 -116 -56 -159 -335 -166 -284 -470 99
-597 37 -13 67 -24 67 -27 0 -15 -66 -129 -101 -173 -275 -348 -787 -452
-1191 -243 l-68 35 21 29 c11 16 24 31 30 35 5 3 21 23 35 45 22 35 28 39 65
39 58 0 226 36 311 66 148 53 280 146 353 249 107 149 123 302 52 487 -66 172
-94 324 -84 458 12 170 85 237 196 180z m-3523 -879 l151 -73 7 -91 c8 -108
41 -195 116 -309 132 -201 322 -302 565 -301 167 1 305 38 489 130 99 50 86
52 153 -28 46 -57 133 -128 191 -158 23 -12 42 -25 42 -29 0 -18 -65 -109
-118 -165 -165 -172 -384 -265 -652 -275 -216 -7 -392 37 -560 140 -136 84
-284 239 -349 366 l-22 43 32 37 c82 93 109 238 62 327 -58 109 -192 175 -358
175 -52 0 -65 3 -69 18 -16 53 -27 197 -21 269 l7 82 91 -43 c51 -24 160 -75
243 -115z m8749 -36 c-3 -44 -11 -107 -18 -140 l-12 -60 -80 -7 c-103 -8 -187
-40 -243 -91 -65 -61 -86 -108 -86 -192 0 -80 20 -132 78 -208 l37 -49 -33
-55 c-93 -154 -226 -275 -393 -357 -171 -84 -245 -101 -450 -100 -187 0 -246
10 -384 65 -156 62 -302 176 -384 299 -43 63 -45 58 58 113 34 18 93 65 137
110 l78 77 58 -29 c150 -75 300 -113 457 -114 243 -1 433 100 565 301 74 113
107 200 117 310 l8 92 240 114 240 115 8 -57 c5 -31 5 -93 2 -137z"/>
</g>
</svg>
